<mxfile host="app.diagrams.net" modified="2022-01-22T15:15:32.836Z" agent="5.0 (Windows NT 10.0; Win64; x64) AppleWebKit/537.36 (KHTML, like Gecko) Chrome/97.0.4692.71 Safari/537.36" etag="6gx9TFXRMswuJCY2aMaC" version="16.4.3" type="github" pages="5">
  <diagram name="2" id="pvW6-fU1ixyFpfHIAkNl">
    <mxGraphModel dx="691" dy="378" grid="1" gridSize="10" guides="1" tooltips="1" connect="1" arrows="1" fold="1" page="1" pageScale="1" pageWidth="600" pageHeight="300" math="0" shadow="0">
      <root>
        <mxCell id="BVCCDl4XH4FnmKrpNNFA-0" />
        <mxCell id="BVCCDl4XH4FnmKrpNNFA-1" parent="BVCCDl4XH4FnmKrpNNFA-0" />
        <mxCell id="-ZnJglzYhx6X0cMDBtap-0" style="edgeStyle=orthogonalEdgeStyle;rounded=0;orthogonalLoop=1;jettySize=auto;html=1;exitX=1;exitY=0.5;exitDx=0;exitDy=0;entryX=0;entryY=0.5;entryDx=0;entryDy=0;fillColor=#dae8fc;strokeColor=#6c8ebf;" edge="1" parent="BVCCDl4XH4FnmKrpNNFA-1" source="BVCCDl4XH4FnmKrpNNFA-2" target="BVCCDl4XH4FnmKrpNNFA-3">
          <mxGeometry relative="1" as="geometry" />
        </mxCell>
        <mxCell id="-ZnJglzYhx6X0cMDBtap-1" style="edgeStyle=orthogonalEdgeStyle;rounded=0;orthogonalLoop=1;jettySize=auto;html=1;exitX=0.5;exitY=1;exitDx=0;exitDy=0;entryX=0.5;entryY=0;entryDx=0;entryDy=0;fillColor=#dae8fc;strokeColor=#6c8ebf;" edge="1" parent="BVCCDl4XH4FnmKrpNNFA-1" source="BVCCDl4XH4FnmKrpNNFA-2" target="BVCCDl4XH4FnmKrpNNFA-4">
          <mxGeometry relative="1" as="geometry" />
        </mxCell>
        <mxCell id="BVCCDl4XH4FnmKrpNNFA-2" value="0" style="rounded=0;whiteSpace=wrap;html=1;fillColor=#fff2cc;strokeColor=#d6b656;fontSize=20;" vertex="1" parent="BVCCDl4XH4FnmKrpNNFA-1">
          <mxGeometry x="60" y="30" width="40" height="40" as="geometry" />
        </mxCell>
        <mxCell id="BVCCDl4XH4FnmKrpNNFA-3" value="" style="rounded=0;whiteSpace=wrap;html=1;" vertex="1" parent="BVCCDl4XH4FnmKrpNNFA-1">
          <mxGeometry x="120" y="30" width="40" height="40" as="geometry" />
        </mxCell>
        <mxCell id="BVCCDl4XH4FnmKrpNNFA-4" value="" style="rounded=0;whiteSpace=wrap;html=1;" vertex="1" parent="BVCCDl4XH4FnmKrpNNFA-1">
          <mxGeometry x="60" y="90" width="40" height="40" as="geometry" />
        </mxCell>
        <mxCell id="BVCCDl4XH4FnmKrpNNFA-5" value="" style="rounded=0;whiteSpace=wrap;html=1;fillColor=#d5e8d4;strokeColor=#82b366;" vertex="1" parent="BVCCDl4XH4FnmKrpNNFA-1">
          <mxGeometry x="120" y="90" width="40" height="40" as="geometry" />
        </mxCell>
        <mxCell id="BVCCDl4XH4FnmKrpNNFA-6" value="" style="rounded=0;whiteSpace=wrap;html=1;" vertex="1" parent="BVCCDl4XH4FnmKrpNNFA-1">
          <mxGeometry x="180" y="30" width="40" height="40" as="geometry" />
        </mxCell>
        <mxCell id="BVCCDl4XH4FnmKrpNNFA-7" value="" style="rounded=0;whiteSpace=wrap;html=1;fillColor=#f8cecc;strokeColor=#b85450;" vertex="1" parent="BVCCDl4XH4FnmKrpNNFA-1">
          <mxGeometry x="180" y="90" width="40" height="40" as="geometry" />
        </mxCell>
        <mxCell id="BVCCDl4XH4FnmKrpNNFA-8" value="" style="rounded=0;whiteSpace=wrap;html=1;fillColor=#f8cecc;strokeColor=#b85450;" vertex="1" parent="BVCCDl4XH4FnmKrpNNFA-1">
          <mxGeometry x="60" y="150" width="40" height="40" as="geometry" />
        </mxCell>
        <mxCell id="BVCCDl4XH4FnmKrpNNFA-9" value="" style="rounded=0;whiteSpace=wrap;html=1;fillColor=#f8cecc;strokeColor=#b85450;" vertex="1" parent="BVCCDl4XH4FnmKrpNNFA-1">
          <mxGeometry x="120" y="150" width="40" height="40" as="geometry" />
        </mxCell>
        <mxCell id="BVCCDl4XH4FnmKrpNNFA-10" value="" style="rounded=0;whiteSpace=wrap;html=1;fillColor=#f8cecc;strokeColor=#b85450;" vertex="1" parent="BVCCDl4XH4FnmKrpNNFA-1">
          <mxGeometry x="180" y="150" width="40" height="40" as="geometry" />
        </mxCell>
        <mxCell id="BVCCDl4XH4FnmKrpNNFA-11" value="" style="rounded=0;whiteSpace=wrap;html=1;fillColor=#d5e8d4;strokeColor=#82b366;" vertex="1" parent="BVCCDl4XH4FnmKrpNNFA-1">
          <mxGeometry x="240" y="30" width="40" height="40" as="geometry" />
        </mxCell>
        <mxCell id="BVCCDl4XH4FnmKrpNNFA-12" value="" style="rounded=0;whiteSpace=wrap;html=1;fillColor=#d5e8d4;strokeColor=#82b366;" vertex="1" parent="BVCCDl4XH4FnmKrpNNFA-1">
          <mxGeometry x="240" y="90" width="40" height="40" as="geometry" />
        </mxCell>
        <mxCell id="BVCCDl4XH4FnmKrpNNFA-13" value="" style="rounded=0;whiteSpace=wrap;html=1;" vertex="1" parent="BVCCDl4XH4FnmKrpNNFA-1">
          <mxGeometry x="240" y="150" width="40" height="40" as="geometry" />
        </mxCell>
        <mxCell id="BVCCDl4XH4FnmKrpNNFA-14" value="" style="rounded=0;whiteSpace=wrap;html=1;" vertex="1" parent="BVCCDl4XH4FnmKrpNNFA-1">
          <mxGeometry x="60" y="210" width="40" height="40" as="geometry" />
        </mxCell>
        <mxCell id="BVCCDl4XH4FnmKrpNNFA-15" value="" style="rounded=0;whiteSpace=wrap;html=1;fillColor=#f8cecc;strokeColor=#b85450;" vertex="1" parent="BVCCDl4XH4FnmKrpNNFA-1">
          <mxGeometry x="120" y="210" width="40" height="40" as="geometry" />
        </mxCell>
        <mxCell id="BVCCDl4XH4FnmKrpNNFA-16" value="" style="rounded=0;whiteSpace=wrap;html=1;fillColor=#d5e8d4;strokeColor=#82b366;" vertex="1" parent="BVCCDl4XH4FnmKrpNNFA-1">
          <mxGeometry x="180" y="210" width="40" height="40" as="geometry" />
        </mxCell>
        <mxCell id="BVCCDl4XH4FnmKrpNNFA-17" value="" style="rounded=0;whiteSpace=wrap;html=1;fillColor=#d5e8d4;strokeColor=#82b366;" vertex="1" parent="BVCCDl4XH4FnmKrpNNFA-1">
          <mxGeometry x="240" y="210" width="40" height="40" as="geometry" />
        </mxCell>
        <mxCell id="BVCCDl4XH4FnmKrpNNFA-18" value="" style="rounded=0;whiteSpace=wrap;html=1;fillColor=#fff2cc;strokeColor=#d6b656;" vertex="1" parent="BVCCDl4XH4FnmKrpNNFA-1">
          <mxGeometry x="360" y="40" width="40" height="40" as="geometry" />
        </mxCell>
        <mxCell id="BVCCDl4XH4FnmKrpNNFA-19" value="" style="rounded=0;whiteSpace=wrap;html=1;fillColor=#d5e8d4;strokeColor=#82b366;" vertex="1" parent="BVCCDl4XH4FnmKrpNNFA-1">
          <mxGeometry x="360" y="140" width="40" height="40" as="geometry" />
        </mxCell>
        <mxCell id="BVCCDl4XH4FnmKrpNNFA-20" value="" style="rounded=0;whiteSpace=wrap;html=1;" vertex="1" parent="BVCCDl4XH4FnmKrpNNFA-1">
          <mxGeometry x="360" y="90" width="40" height="40" as="geometry" />
        </mxCell>
        <mxCell id="BVCCDl4XH4FnmKrpNNFA-21" value="" style="rounded=0;whiteSpace=wrap;html=1;fillColor=#f8cecc;strokeColor=#b85450;" vertex="1" parent="BVCCDl4XH4FnmKrpNNFA-1">
          <mxGeometry x="360" y="190" width="40" height="40" as="geometry" />
        </mxCell>
        <mxCell id="BVCCDl4XH4FnmKrpNNFA-22" value="empty" style="text;html=1;strokeColor=none;fillColor=none;align=center;verticalAlign=middle;whiteSpace=wrap;rounded=0;" vertex="1" parent="BVCCDl4XH4FnmKrpNNFA-1">
          <mxGeometry x="390" y="95" width="60" height="30" as="geometry" />
        </mxCell>
        <mxCell id="BVCCDl4XH4FnmKrpNNFA-23" value="start" style="text;html=1;strokeColor=none;fillColor=none;align=center;verticalAlign=middle;whiteSpace=wrap;rounded=0;" vertex="1" parent="BVCCDl4XH4FnmKrpNNFA-1">
          <mxGeometry x="390" y="45" width="60" height="30" as="geometry" />
        </mxCell>
        <mxCell id="BVCCDl4XH4FnmKrpNNFA-24" value="item" style="text;html=1;strokeColor=none;fillColor=none;align=center;verticalAlign=middle;whiteSpace=wrap;rounded=0;" vertex="1" parent="BVCCDl4XH4FnmKrpNNFA-1">
          <mxGeometry x="390" y="145" width="60" height="30" as="geometry" />
        </mxCell>
        <mxCell id="BVCCDl4XH4FnmKrpNNFA-25" value="wall" style="text;html=1;strokeColor=none;fillColor=none;align=center;verticalAlign=middle;whiteSpace=wrap;rounded=0;" vertex="1" parent="BVCCDl4XH4FnmKrpNNFA-1">
          <mxGeometry x="390" y="195" width="60" height="30" as="geometry" />
        </mxCell>
      </root>
    </mxGraphModel>
  </diagram>
  <diagram name="3" id="nP-BiLTwvi3fApwtXahl">
    <mxGraphModel dx="834" dy="457" grid="1" gridSize="10" guides="1" tooltips="1" connect="1" arrows="1" fold="1" page="1" pageScale="1" pageWidth="600" pageHeight="300" math="0" shadow="0">
      <root>
        <mxCell id="q39Mo3hWX6-hNvJ6Rziv-0" />
        <mxCell id="q39Mo3hWX6-hNvJ6Rziv-1" parent="q39Mo3hWX6-hNvJ6Rziv-0" />
        <mxCell id="q39Mo3hWX6-hNvJ6Rziv-2" style="edgeStyle=orthogonalEdgeStyle;rounded=0;orthogonalLoop=1;jettySize=auto;html=1;exitX=1;exitY=0.5;exitDx=0;exitDy=0;entryX=0;entryY=0.5;entryDx=0;entryDy=0;fillColor=#dae8fc;strokeColor=#6c8ebf;" edge="1" parent="q39Mo3hWX6-hNvJ6Rziv-1" source="q39Mo3hWX6-hNvJ6Rziv-4" target="q39Mo3hWX6-hNvJ6Rziv-5">
          <mxGeometry relative="1" as="geometry" />
        </mxCell>
        <mxCell id="q39Mo3hWX6-hNvJ6Rziv-3" style="edgeStyle=orthogonalEdgeStyle;rounded=0;orthogonalLoop=1;jettySize=auto;html=1;exitX=0.5;exitY=1;exitDx=0;exitDy=0;entryX=0.5;entryY=0;entryDx=0;entryDy=0;fillColor=#dae8fc;strokeColor=#6c8ebf;" edge="1" parent="q39Mo3hWX6-hNvJ6Rziv-1" source="q39Mo3hWX6-hNvJ6Rziv-4" target="q39Mo3hWX6-hNvJ6Rziv-6">
          <mxGeometry relative="1" as="geometry" />
        </mxCell>
        <mxCell id="q39Mo3hWX6-hNvJ6Rziv-4" value="0" style="rounded=0;whiteSpace=wrap;html=1;fillColor=#fff2cc;strokeColor=#d6b656;fontSize=20;" vertex="1" parent="q39Mo3hWX6-hNvJ6Rziv-1">
          <mxGeometry x="60" y="30" width="40" height="40" as="geometry" />
        </mxCell>
        <mxCell id="q39Mo3hWX6-hNvJ6Rziv-5" value="1" style="rounded=0;whiteSpace=wrap;html=1;fontSize=20;" vertex="1" parent="q39Mo3hWX6-hNvJ6Rziv-1">
          <mxGeometry x="120" y="30" width="40" height="40" as="geometry" />
        </mxCell>
        <mxCell id="q39Mo3hWX6-hNvJ6Rziv-6" value="1" style="rounded=0;whiteSpace=wrap;html=1;fontSize=20;" vertex="1" parent="q39Mo3hWX6-hNvJ6Rziv-1">
          <mxGeometry x="60" y="90" width="40" height="40" as="geometry" />
        </mxCell>
        <mxCell id="q39Mo3hWX6-hNvJ6Rziv-7" value="" style="rounded=0;whiteSpace=wrap;html=1;fillColor=#d5e8d4;strokeColor=#82b366;" vertex="1" parent="q39Mo3hWX6-hNvJ6Rziv-1">
          <mxGeometry x="120" y="90" width="40" height="40" as="geometry" />
        </mxCell>
        <mxCell id="q39Mo3hWX6-hNvJ6Rziv-8" value="" style="rounded=0;whiteSpace=wrap;html=1;" vertex="1" parent="q39Mo3hWX6-hNvJ6Rziv-1">
          <mxGeometry x="180" y="30" width="40" height="40" as="geometry" />
        </mxCell>
        <mxCell id="q39Mo3hWX6-hNvJ6Rziv-9" value="" style="rounded=0;whiteSpace=wrap;html=1;fillColor=#f8cecc;strokeColor=#b85450;" vertex="1" parent="q39Mo3hWX6-hNvJ6Rziv-1">
          <mxGeometry x="180" y="90" width="40" height="40" as="geometry" />
        </mxCell>
        <mxCell id="q39Mo3hWX6-hNvJ6Rziv-10" value="" style="rounded=0;whiteSpace=wrap;html=1;fillColor=#f8cecc;strokeColor=#b85450;" vertex="1" parent="q39Mo3hWX6-hNvJ6Rziv-1">
          <mxGeometry x="60" y="150" width="40" height="40" as="geometry" />
        </mxCell>
        <mxCell id="q39Mo3hWX6-hNvJ6Rziv-11" value="" style="rounded=0;whiteSpace=wrap;html=1;fillColor=#f8cecc;strokeColor=#b85450;" vertex="1" parent="q39Mo3hWX6-hNvJ6Rziv-1">
          <mxGeometry x="120" y="150" width="40" height="40" as="geometry" />
        </mxCell>
        <mxCell id="q39Mo3hWX6-hNvJ6Rziv-12" value="" style="rounded=0;whiteSpace=wrap;html=1;fillColor=#f8cecc;strokeColor=#b85450;" vertex="1" parent="q39Mo3hWX6-hNvJ6Rziv-1">
          <mxGeometry x="180" y="150" width="40" height="40" as="geometry" />
        </mxCell>
        <mxCell id="q39Mo3hWX6-hNvJ6Rziv-13" value="" style="rounded=0;whiteSpace=wrap;html=1;fillColor=#d5e8d4;strokeColor=#82b366;" vertex="1" parent="q39Mo3hWX6-hNvJ6Rziv-1">
          <mxGeometry x="240" y="30" width="40" height="40" as="geometry" />
        </mxCell>
        <mxCell id="q39Mo3hWX6-hNvJ6Rziv-14" value="" style="rounded=0;whiteSpace=wrap;html=1;fillColor=#d5e8d4;strokeColor=#82b366;" vertex="1" parent="q39Mo3hWX6-hNvJ6Rziv-1">
          <mxGeometry x="240" y="90" width="40" height="40" as="geometry" />
        </mxCell>
        <mxCell id="q39Mo3hWX6-hNvJ6Rziv-15" value="" style="rounded=0;whiteSpace=wrap;html=1;" vertex="1" parent="q39Mo3hWX6-hNvJ6Rziv-1">
          <mxGeometry x="240" y="150" width="40" height="40" as="geometry" />
        </mxCell>
        <mxCell id="q39Mo3hWX6-hNvJ6Rziv-16" value="" style="rounded=0;whiteSpace=wrap;html=1;" vertex="1" parent="q39Mo3hWX6-hNvJ6Rziv-1">
          <mxGeometry x="60" y="210" width="40" height="40" as="geometry" />
        </mxCell>
        <mxCell id="q39Mo3hWX6-hNvJ6Rziv-17" value="" style="rounded=0;whiteSpace=wrap;html=1;fillColor=#f8cecc;strokeColor=#b85450;" vertex="1" parent="q39Mo3hWX6-hNvJ6Rziv-1">
          <mxGeometry x="120" y="210" width="40" height="40" as="geometry" />
        </mxCell>
        <mxCell id="q39Mo3hWX6-hNvJ6Rziv-18" value="" style="rounded=0;whiteSpace=wrap;html=1;fillColor=#d5e8d4;strokeColor=#82b366;" vertex="1" parent="q39Mo3hWX6-hNvJ6Rziv-1">
          <mxGeometry x="180" y="210" width="40" height="40" as="geometry" />
        </mxCell>
        <mxCell id="q39Mo3hWX6-hNvJ6Rziv-19" value="" style="rounded=0;whiteSpace=wrap;html=1;fillColor=#d5e8d4;strokeColor=#82b366;" vertex="1" parent="q39Mo3hWX6-hNvJ6Rziv-1">
          <mxGeometry x="240" y="210" width="40" height="40" as="geometry" />
        </mxCell>
        <mxCell id="q39Mo3hWX6-hNvJ6Rziv-20" value="" style="rounded=0;whiteSpace=wrap;html=1;fillColor=#fff2cc;strokeColor=#d6b656;" vertex="1" parent="q39Mo3hWX6-hNvJ6Rziv-1">
          <mxGeometry x="360" y="40" width="40" height="40" as="geometry" />
        </mxCell>
        <mxCell id="q39Mo3hWX6-hNvJ6Rziv-21" value="" style="rounded=0;whiteSpace=wrap;html=1;fillColor=#d5e8d4;strokeColor=#82b366;" vertex="1" parent="q39Mo3hWX6-hNvJ6Rziv-1">
          <mxGeometry x="360" y="140" width="40" height="40" as="geometry" />
        </mxCell>
        <mxCell id="q39Mo3hWX6-hNvJ6Rziv-22" value="" style="rounded=0;whiteSpace=wrap;html=1;" vertex="1" parent="q39Mo3hWX6-hNvJ6Rziv-1">
          <mxGeometry x="360" y="90" width="40" height="40" as="geometry" />
        </mxCell>
        <mxCell id="q39Mo3hWX6-hNvJ6Rziv-23" value="" style="rounded=0;whiteSpace=wrap;html=1;fillColor=#f8cecc;strokeColor=#b85450;" vertex="1" parent="q39Mo3hWX6-hNvJ6Rziv-1">
          <mxGeometry x="360" y="190" width="40" height="40" as="geometry" />
        </mxCell>
        <mxCell id="q39Mo3hWX6-hNvJ6Rziv-24" value="empty" style="text;html=1;strokeColor=none;fillColor=none;align=center;verticalAlign=middle;whiteSpace=wrap;rounded=0;" vertex="1" parent="q39Mo3hWX6-hNvJ6Rziv-1">
          <mxGeometry x="390" y="95" width="60" height="30" as="geometry" />
        </mxCell>
        <mxCell id="q39Mo3hWX6-hNvJ6Rziv-25" value="start" style="text;html=1;strokeColor=none;fillColor=none;align=center;verticalAlign=middle;whiteSpace=wrap;rounded=0;" vertex="1" parent="q39Mo3hWX6-hNvJ6Rziv-1">
          <mxGeometry x="390" y="45" width="60" height="30" as="geometry" />
        </mxCell>
        <mxCell id="q39Mo3hWX6-hNvJ6Rziv-26" value="item" style="text;html=1;strokeColor=none;fillColor=none;align=center;verticalAlign=middle;whiteSpace=wrap;rounded=0;" vertex="1" parent="q39Mo3hWX6-hNvJ6Rziv-1">
          <mxGeometry x="390" y="145" width="60" height="30" as="geometry" />
        </mxCell>
        <mxCell id="q39Mo3hWX6-hNvJ6Rziv-27" value="wall" style="text;html=1;strokeColor=none;fillColor=none;align=center;verticalAlign=middle;whiteSpace=wrap;rounded=0;" vertex="1" parent="q39Mo3hWX6-hNvJ6Rziv-1">
          <mxGeometry x="390" y="195" width="60" height="30" as="geometry" />
        </mxCell>
      </root>
    </mxGraphModel>
  </diagram>
  <diagram name="4" id="98l3eZnb7uzic7sBY9MM">
    <mxGraphModel dx="834" dy="457" grid="1" gridSize="10" guides="1" tooltips="1" connect="1" arrows="1" fold="1" page="1" pageScale="1" pageWidth="600" pageHeight="300" math="0" shadow="0">
      <root>
        <mxCell id="6_KRH-Y17S1JpxEeACTi-0" />
        <mxCell id="6_KRH-Y17S1JpxEeACTi-1" parent="6_KRH-Y17S1JpxEeACTi-0" />
        <mxCell id="6_KRH-Y17S1JpxEeACTi-2" style="edgeStyle=orthogonalEdgeStyle;rounded=0;orthogonalLoop=1;jettySize=auto;html=1;exitX=1;exitY=0.5;exitDx=0;exitDy=0;entryX=0;entryY=0.5;entryDx=0;entryDy=0;fillColor=#dae8fc;strokeColor=#6c8ebf;" edge="1" parent="6_KRH-Y17S1JpxEeACTi-1" source="6_KRH-Y17S1JpxEeACTi-4" target="6_KRH-Y17S1JpxEeACTi-5">
          <mxGeometry relative="1" as="geometry" />
        </mxCell>
        <mxCell id="6_KRH-Y17S1JpxEeACTi-3" style="edgeStyle=orthogonalEdgeStyle;rounded=0;orthogonalLoop=1;jettySize=auto;html=1;exitX=0.5;exitY=1;exitDx=0;exitDy=0;entryX=0.5;entryY=0;entryDx=0;entryDy=0;fillColor=#dae8fc;strokeColor=#6c8ebf;" edge="1" parent="6_KRH-Y17S1JpxEeACTi-1" source="6_KRH-Y17S1JpxEeACTi-4" target="6_KRH-Y17S1JpxEeACTi-6">
          <mxGeometry relative="1" as="geometry" />
        </mxCell>
        <mxCell id="6_KRH-Y17S1JpxEeACTi-4" value="0" style="rounded=0;whiteSpace=wrap;html=1;fillColor=#fff2cc;strokeColor=#d6b656;fontSize=20;" vertex="1" parent="6_KRH-Y17S1JpxEeACTi-1">
          <mxGeometry x="60" y="30" width="40" height="40" as="geometry" />
        </mxCell>
        <mxCell id="6_KRH-Y17S1JpxEeACTi-28" style="edgeStyle=orthogonalEdgeStyle;rounded=0;orthogonalLoop=1;jettySize=auto;html=1;exitX=1;exitY=0.5;exitDx=0;exitDy=0;entryX=0;entryY=0.5;entryDx=0;entryDy=0;fontSize=20;fillColor=#dae8fc;strokeColor=#6c8ebf;" edge="1" parent="6_KRH-Y17S1JpxEeACTi-1" source="6_KRH-Y17S1JpxEeACTi-5" target="6_KRH-Y17S1JpxEeACTi-8">
          <mxGeometry relative="1" as="geometry" />
        </mxCell>
        <mxCell id="6_KRH-Y17S1JpxEeACTi-29" style="edgeStyle=orthogonalEdgeStyle;rounded=0;orthogonalLoop=1;jettySize=auto;html=1;exitX=0.5;exitY=1;exitDx=0;exitDy=0;entryX=0.5;entryY=0;entryDx=0;entryDy=0;fontSize=20;fillColor=#dae8fc;strokeColor=#6c8ebf;" edge="1" parent="6_KRH-Y17S1JpxEeACTi-1" source="6_KRH-Y17S1JpxEeACTi-5" target="6_KRH-Y17S1JpxEeACTi-7">
          <mxGeometry relative="1" as="geometry" />
        </mxCell>
        <mxCell id="6_KRH-Y17S1JpxEeACTi-5" value="1" style="rounded=0;whiteSpace=wrap;html=1;fontSize=20;" vertex="1" parent="6_KRH-Y17S1JpxEeACTi-1">
          <mxGeometry x="120" y="30" width="40" height="40" as="geometry" />
        </mxCell>
        <mxCell id="6_KRH-Y17S1JpxEeACTi-6" value="1" style="rounded=0;whiteSpace=wrap;html=1;fontSize=20;" vertex="1" parent="6_KRH-Y17S1JpxEeACTi-1">
          <mxGeometry x="60" y="90" width="40" height="40" as="geometry" />
        </mxCell>
        <mxCell id="6_KRH-Y17S1JpxEeACTi-7" value="2" style="rounded=0;whiteSpace=wrap;html=1;fillColor=#d5e8d4;strokeColor=#82b366;fontSize=20;" vertex="1" parent="6_KRH-Y17S1JpxEeACTi-1">
          <mxGeometry x="120" y="90" width="40" height="40" as="geometry" />
        </mxCell>
        <mxCell id="6_KRH-Y17S1JpxEeACTi-8" value="2" style="rounded=0;whiteSpace=wrap;html=1;fontSize=20;" vertex="1" parent="6_KRH-Y17S1JpxEeACTi-1">
          <mxGeometry x="180" y="30" width="40" height="40" as="geometry" />
        </mxCell>
        <mxCell id="6_KRH-Y17S1JpxEeACTi-9" value="" style="rounded=0;whiteSpace=wrap;html=1;fillColor=#f8cecc;strokeColor=#b85450;" vertex="1" parent="6_KRH-Y17S1JpxEeACTi-1">
          <mxGeometry x="180" y="90" width="40" height="40" as="geometry" />
        </mxCell>
        <mxCell id="6_KRH-Y17S1JpxEeACTi-10" value="" style="rounded=0;whiteSpace=wrap;html=1;fillColor=#f8cecc;strokeColor=#b85450;" vertex="1" parent="6_KRH-Y17S1JpxEeACTi-1">
          <mxGeometry x="60" y="150" width="40" height="40" as="geometry" />
        </mxCell>
        <mxCell id="6_KRH-Y17S1JpxEeACTi-11" value="" style="rounded=0;whiteSpace=wrap;html=1;fillColor=#f8cecc;strokeColor=#b85450;" vertex="1" parent="6_KRH-Y17S1JpxEeACTi-1">
          <mxGeometry x="120" y="150" width="40" height="40" as="geometry" />
        </mxCell>
        <mxCell id="6_KRH-Y17S1JpxEeACTi-12" value="" style="rounded=0;whiteSpace=wrap;html=1;fillColor=#f8cecc;strokeColor=#b85450;" vertex="1" parent="6_KRH-Y17S1JpxEeACTi-1">
          <mxGeometry x="180" y="150" width="40" height="40" as="geometry" />
        </mxCell>
        <mxCell id="6_KRH-Y17S1JpxEeACTi-13" value="" style="rounded=0;whiteSpace=wrap;html=1;fillColor=#d5e8d4;strokeColor=#82b366;" vertex="1" parent="6_KRH-Y17S1JpxEeACTi-1">
          <mxGeometry x="240" y="30" width="40" height="40" as="geometry" />
        </mxCell>
        <mxCell id="6_KRH-Y17S1JpxEeACTi-14" value="" style="rounded=0;whiteSpace=wrap;html=1;fillColor=#d5e8d4;strokeColor=#82b366;" vertex="1" parent="6_KRH-Y17S1JpxEeACTi-1">
          <mxGeometry x="240" y="90" width="40" height="40" as="geometry" />
        </mxCell>
        <mxCell id="6_KRH-Y17S1JpxEeACTi-15" value="" style="rounded=0;whiteSpace=wrap;html=1;" vertex="1" parent="6_KRH-Y17S1JpxEeACTi-1">
          <mxGeometry x="240" y="150" width="40" height="40" as="geometry" />
        </mxCell>
        <mxCell id="6_KRH-Y17S1JpxEeACTi-16" value="" style="rounded=0;whiteSpace=wrap;html=1;" vertex="1" parent="6_KRH-Y17S1JpxEeACTi-1">
          <mxGeometry x="60" y="210" width="40" height="40" as="geometry" />
        </mxCell>
        <mxCell id="6_KRH-Y17S1JpxEeACTi-17" value="" style="rounded=0;whiteSpace=wrap;html=1;fillColor=#f8cecc;strokeColor=#b85450;" vertex="1" parent="6_KRH-Y17S1JpxEeACTi-1">
          <mxGeometry x="120" y="210" width="40" height="40" as="geometry" />
        </mxCell>
        <mxCell id="6_KRH-Y17S1JpxEeACTi-18" value="" style="rounded=0;whiteSpace=wrap;html=1;fillColor=#d5e8d4;strokeColor=#82b366;" vertex="1" parent="6_KRH-Y17S1JpxEeACTi-1">
          <mxGeometry x="180" y="210" width="40" height="40" as="geometry" />
        </mxCell>
        <mxCell id="6_KRH-Y17S1JpxEeACTi-19" value="" style="rounded=0;whiteSpace=wrap;html=1;fillColor=#d5e8d4;strokeColor=#82b366;" vertex="1" parent="6_KRH-Y17S1JpxEeACTi-1">
          <mxGeometry x="240" y="210" width="40" height="40" as="geometry" />
        </mxCell>
        <mxCell id="6_KRH-Y17S1JpxEeACTi-20" value="" style="rounded=0;whiteSpace=wrap;html=1;fillColor=#fff2cc;strokeColor=#d6b656;" vertex="1" parent="6_KRH-Y17S1JpxEeACTi-1">
          <mxGeometry x="360" y="40" width="40" height="40" as="geometry" />
        </mxCell>
        <mxCell id="6_KRH-Y17S1JpxEeACTi-21" value="" style="rounded=0;whiteSpace=wrap;html=1;fillColor=#d5e8d4;strokeColor=#82b366;" vertex="1" parent="6_KRH-Y17S1JpxEeACTi-1">
          <mxGeometry x="360" y="140" width="40" height="40" as="geometry" />
        </mxCell>
        <mxCell id="6_KRH-Y17S1JpxEeACTi-22" value="" style="rounded=0;whiteSpace=wrap;html=1;" vertex="1" parent="6_KRH-Y17S1JpxEeACTi-1">
          <mxGeometry x="360" y="90" width="40" height="40" as="geometry" />
        </mxCell>
        <mxCell id="6_KRH-Y17S1JpxEeACTi-23" value="" style="rounded=0;whiteSpace=wrap;html=1;fillColor=#f8cecc;strokeColor=#b85450;" vertex="1" parent="6_KRH-Y17S1JpxEeACTi-1">
          <mxGeometry x="360" y="190" width="40" height="40" as="geometry" />
        </mxCell>
        <mxCell id="6_KRH-Y17S1JpxEeACTi-24" value="empty" style="text;html=1;strokeColor=none;fillColor=none;align=center;verticalAlign=middle;whiteSpace=wrap;rounded=0;" vertex="1" parent="6_KRH-Y17S1JpxEeACTi-1">
          <mxGeometry x="390" y="95" width="60" height="30" as="geometry" />
        </mxCell>
        <mxCell id="6_KRH-Y17S1JpxEeACTi-25" value="start" style="text;html=1;strokeColor=none;fillColor=none;align=center;verticalAlign=middle;whiteSpace=wrap;rounded=0;" vertex="1" parent="6_KRH-Y17S1JpxEeACTi-1">
          <mxGeometry x="390" y="45" width="60" height="30" as="geometry" />
        </mxCell>
        <mxCell id="6_KRH-Y17S1JpxEeACTi-26" value="item" style="text;html=1;strokeColor=none;fillColor=none;align=center;verticalAlign=middle;whiteSpace=wrap;rounded=0;" vertex="1" parent="6_KRH-Y17S1JpxEeACTi-1">
          <mxGeometry x="390" y="145" width="60" height="30" as="geometry" />
        </mxCell>
        <mxCell id="6_KRH-Y17S1JpxEeACTi-27" value="wall" style="text;html=1;strokeColor=none;fillColor=none;align=center;verticalAlign=middle;whiteSpace=wrap;rounded=0;" vertex="1" parent="6_KRH-Y17S1JpxEeACTi-1">
          <mxGeometry x="390" y="195" width="60" height="30" as="geometry" />
        </mxCell>
        <mxCell id="6_KRH-Y17S1JpxEeACTi-30" value="" style="endArrow=classic;html=1;rounded=0;fontSize=20;dashed=1;exitX=1;exitY=0.5;exitDx=0;exitDy=0;fillColor=#f8cecc;strokeColor=#b85450;strokeWidth=2;" edge="1" parent="6_KRH-Y17S1JpxEeACTi-1" source="6_KRH-Y17S1JpxEeACTi-6">
          <mxGeometry width="50" height="50" relative="1" as="geometry">
            <mxPoint x="260" y="150" as="sourcePoint" />
            <mxPoint x="120" y="110" as="targetPoint" />
          </mxGeometry>
        </mxCell>
        <mxCell id="6_KRH-Y17S1JpxEeACTi-32" value="" style="endArrow=classic;html=1;rounded=0;fontSize=20;dashed=1;exitX=0.5;exitY=1;exitDx=0;exitDy=0;fillColor=#f8cecc;strokeColor=#b85450;entryX=0.5;entryY=0;entryDx=0;entryDy=0;strokeWidth=2;" edge="1" parent="6_KRH-Y17S1JpxEeACTi-1" source="6_KRH-Y17S1JpxEeACTi-6" target="6_KRH-Y17S1JpxEeACTi-10">
          <mxGeometry width="50" height="50" relative="1" as="geometry">
            <mxPoint x="110" y="120" as="sourcePoint" />
            <mxPoint x="130" y="120" as="targetPoint" />
          </mxGeometry>
        </mxCell>
        <mxCell id="6_KRH-Y17S1JpxEeACTi-33" value="" style="endArrow=classic;html=1;rounded=0;fontSize=20;dashed=1;exitX=0;exitY=0.5;exitDx=0;exitDy=0;fillColor=#f8cecc;strokeColor=#b85450;strokeWidth=2;" edge="1" parent="6_KRH-Y17S1JpxEeACTi-1" source="6_KRH-Y17S1JpxEeACTi-6">
          <mxGeometry width="50" height="50" relative="1" as="geometry">
            <mxPoint x="110" y="120" as="sourcePoint" />
            <mxPoint x="40" y="110" as="targetPoint" />
          </mxGeometry>
        </mxCell>
      </root>
    </mxGraphModel>
  </diagram>
  <diagram name="5" id="kPNxriNLHMkfSaPi3Yks">
    <mxGraphModel dx="1328" dy="457" grid="1" gridSize="10" guides="1" tooltips="1" connect="1" arrows="1" fold="1" page="1" pageScale="1" pageWidth="600" pageHeight="300" math="0" shadow="0">
      <root>
        <mxCell id="NaCgEEBfmIH6zUX-_HyB-0" />
        <mxCell id="NaCgEEBfmIH6zUX-_HyB-1" parent="NaCgEEBfmIH6zUX-_HyB-0" />
        <mxCell id="NaCgEEBfmIH6zUX-_HyB-2" style="edgeStyle=orthogonalEdgeStyle;rounded=0;orthogonalLoop=1;jettySize=auto;html=1;exitX=1;exitY=0.5;exitDx=0;exitDy=0;entryX=0;entryY=0.5;entryDx=0;entryDy=0;fillColor=#dae8fc;strokeColor=#6c8ebf;" edge="1" parent="NaCgEEBfmIH6zUX-_HyB-1" source="NaCgEEBfmIH6zUX-_HyB-4" target="NaCgEEBfmIH6zUX-_HyB-7">
          <mxGeometry relative="1" as="geometry" />
        </mxCell>
        <mxCell id="NaCgEEBfmIH6zUX-_HyB-3" style="edgeStyle=orthogonalEdgeStyle;rounded=0;orthogonalLoop=1;jettySize=auto;html=1;exitX=0.5;exitY=1;exitDx=0;exitDy=0;entryX=0.5;entryY=0;entryDx=0;entryDy=0;fillColor=#dae8fc;strokeColor=#6c8ebf;" edge="1" parent="NaCgEEBfmIH6zUX-_HyB-1" source="NaCgEEBfmIH6zUX-_HyB-4" target="NaCgEEBfmIH6zUX-_HyB-8">
          <mxGeometry relative="1" as="geometry" />
        </mxCell>
        <mxCell id="NaCgEEBfmIH6zUX-_HyB-4" value="0" style="rounded=0;whiteSpace=wrap;html=1;fillColor=#fff2cc;strokeColor=#d6b656;fontSize=20;" vertex="1" parent="NaCgEEBfmIH6zUX-_HyB-1">
          <mxGeometry x="60" y="30" width="40" height="40" as="geometry" />
        </mxCell>
        <mxCell id="NaCgEEBfmIH6zUX-_HyB-5" style="edgeStyle=orthogonalEdgeStyle;rounded=0;orthogonalLoop=1;jettySize=auto;html=1;exitX=1;exitY=0.5;exitDx=0;exitDy=0;entryX=0;entryY=0.5;entryDx=0;entryDy=0;fontSize=20;fillColor=#dae8fc;strokeColor=#6c8ebf;" edge="1" parent="NaCgEEBfmIH6zUX-_HyB-1" source="NaCgEEBfmIH6zUX-_HyB-7" target="NaCgEEBfmIH6zUX-_HyB-10">
          <mxGeometry relative="1" as="geometry" />
        </mxCell>
        <mxCell id="NaCgEEBfmIH6zUX-_HyB-6" style="edgeStyle=orthogonalEdgeStyle;rounded=0;orthogonalLoop=1;jettySize=auto;html=1;exitX=0.5;exitY=1;exitDx=0;exitDy=0;entryX=0.5;entryY=0;entryDx=0;entryDy=0;fontSize=20;fillColor=#dae8fc;strokeColor=#6c8ebf;" edge="1" parent="NaCgEEBfmIH6zUX-_HyB-1" source="NaCgEEBfmIH6zUX-_HyB-7" target="NaCgEEBfmIH6zUX-_HyB-9">
          <mxGeometry relative="1" as="geometry" />
        </mxCell>
        <mxCell id="NaCgEEBfmIH6zUX-_HyB-7" value="1" style="rounded=0;whiteSpace=wrap;html=1;fontSize=20;" vertex="1" parent="NaCgEEBfmIH6zUX-_HyB-1">
          <mxGeometry x="120" y="30" width="40" height="40" as="geometry" />
        </mxCell>
        <mxCell id="NaCgEEBfmIH6zUX-_HyB-8" value="1" style="rounded=0;whiteSpace=wrap;html=1;fontSize=20;" vertex="1" parent="NaCgEEBfmIH6zUX-_HyB-1">
          <mxGeometry x="60" y="90" width="40" height="40" as="geometry" />
        </mxCell>
        <mxCell id="NaCgEEBfmIH6zUX-_HyB-9" value="2" style="rounded=0;whiteSpace=wrap;html=1;fillColor=#d5e8d4;strokeColor=#82b366;fontSize=20;" vertex="1" parent="NaCgEEBfmIH6zUX-_HyB-1">
          <mxGeometry x="120" y="90" width="40" height="40" as="geometry" />
        </mxCell>
        <mxCell id="NaCgEEBfmIH6zUX-_HyB-10" value="2" style="rounded=0;whiteSpace=wrap;html=1;fontSize=20;" vertex="1" parent="NaCgEEBfmIH6zUX-_HyB-1">
          <mxGeometry x="180" y="30" width="40" height="40" as="geometry" />
        </mxCell>
        <mxCell id="NaCgEEBfmIH6zUX-_HyB-11" value="" style="rounded=0;whiteSpace=wrap;html=1;fillColor=#f8cecc;strokeColor=#b85450;" vertex="1" parent="NaCgEEBfmIH6zUX-_HyB-1">
          <mxGeometry x="180" y="90" width="40" height="40" as="geometry" />
        </mxCell>
        <mxCell id="NaCgEEBfmIH6zUX-_HyB-12" value="" style="rounded=0;whiteSpace=wrap;html=1;fillColor=#f8cecc;strokeColor=#b85450;" vertex="1" parent="NaCgEEBfmIH6zUX-_HyB-1">
          <mxGeometry x="60" y="150" width="40" height="40" as="geometry" />
        </mxCell>
        <mxCell id="NaCgEEBfmIH6zUX-_HyB-13" value="" style="rounded=0;whiteSpace=wrap;html=1;fillColor=#f8cecc;strokeColor=#b85450;" vertex="1" parent="NaCgEEBfmIH6zUX-_HyB-1">
          <mxGeometry x="120" y="150" width="40" height="40" as="geometry" />
        </mxCell>
        <mxCell id="NaCgEEBfmIH6zUX-_HyB-14" value="" style="rounded=0;whiteSpace=wrap;html=1;fillColor=#f8cecc;strokeColor=#b85450;" vertex="1" parent="NaCgEEBfmIH6zUX-_HyB-1">
          <mxGeometry x="180" y="150" width="40" height="40" as="geometry" />
        </mxCell>
        <mxCell id="NaCgEEBfmIH6zUX-_HyB-15" value="3" style="rounded=0;whiteSpace=wrap;html=1;fillColor=#d5e8d4;strokeColor=#82b366;fontSize=20;" vertex="1" parent="NaCgEEBfmIH6zUX-_HyB-1">
          <mxGeometry x="240" y="30" width="40" height="40" as="geometry" />
        </mxCell>
        <mxCell id="NaCgEEBfmIH6zUX-_HyB-16" value="" style="rounded=0;whiteSpace=wrap;html=1;fillColor=#d5e8d4;strokeColor=#82b366;" vertex="1" parent="NaCgEEBfmIH6zUX-_HyB-1">
          <mxGeometry x="240" y="90" width="40" height="40" as="geometry" />
        </mxCell>
        <mxCell id="NaCgEEBfmIH6zUX-_HyB-17" value="" style="rounded=0;whiteSpace=wrap;html=1;" vertex="1" parent="NaCgEEBfmIH6zUX-_HyB-1">
          <mxGeometry x="240" y="150" width="40" height="40" as="geometry" />
        </mxCell>
        <mxCell id="NaCgEEBfmIH6zUX-_HyB-18" value="" style="rounded=0;whiteSpace=wrap;html=1;" vertex="1" parent="NaCgEEBfmIH6zUX-_HyB-1">
          <mxGeometry x="60" y="210" width="40" height="40" as="geometry" />
        </mxCell>
        <mxCell id="NaCgEEBfmIH6zUX-_HyB-19" value="" style="rounded=0;whiteSpace=wrap;html=1;fillColor=#f8cecc;strokeColor=#b85450;" vertex="1" parent="NaCgEEBfmIH6zUX-_HyB-1">
          <mxGeometry x="120" y="210" width="40" height="40" as="geometry" />
        </mxCell>
        <mxCell id="NaCgEEBfmIH6zUX-_HyB-20" value="" style="rounded=0;whiteSpace=wrap;html=1;fillColor=#d5e8d4;strokeColor=#82b366;" vertex="1" parent="NaCgEEBfmIH6zUX-_HyB-1">
          <mxGeometry x="180" y="210" width="40" height="40" as="geometry" />
        </mxCell>
        <mxCell id="NaCgEEBfmIH6zUX-_HyB-21" value="" style="rounded=0;whiteSpace=wrap;html=1;fillColor=#d5e8d4;strokeColor=#82b366;" vertex="1" parent="NaCgEEBfmIH6zUX-_HyB-1">
          <mxGeometry x="240" y="210" width="40" height="40" as="geometry" />
        </mxCell>
        <mxCell id="NaCgEEBfmIH6zUX-_HyB-22" value="" style="rounded=0;whiteSpace=wrap;html=1;fillColor=#fff2cc;strokeColor=#d6b656;" vertex="1" parent="NaCgEEBfmIH6zUX-_HyB-1">
          <mxGeometry x="360" y="40" width="40" height="40" as="geometry" />
        </mxCell>
        <mxCell id="NaCgEEBfmIH6zUX-_HyB-23" value="" style="rounded=0;whiteSpace=wrap;html=1;fillColor=#d5e8d4;strokeColor=#82b366;" vertex="1" parent="NaCgEEBfmIH6zUX-_HyB-1">
          <mxGeometry x="360" y="140" width="40" height="40" as="geometry" />
        </mxCell>
        <mxCell id="NaCgEEBfmIH6zUX-_HyB-24" value="" style="rounded=0;whiteSpace=wrap;html=1;" vertex="1" parent="NaCgEEBfmIH6zUX-_HyB-1">
          <mxGeometry x="360" y="90" width="40" height="40" as="geometry" />
        </mxCell>
        <mxCell id="NaCgEEBfmIH6zUX-_HyB-25" value="" style="rounded=0;whiteSpace=wrap;html=1;fillColor=#f8cecc;strokeColor=#b85450;" vertex="1" parent="NaCgEEBfmIH6zUX-_HyB-1">
          <mxGeometry x="360" y="190" width="40" height="40" as="geometry" />
        </mxCell>
        <mxCell id="NaCgEEBfmIH6zUX-_HyB-26" value="empty" style="text;html=1;strokeColor=none;fillColor=none;align=center;verticalAlign=middle;whiteSpace=wrap;rounded=0;" vertex="1" parent="NaCgEEBfmIH6zUX-_HyB-1">
          <mxGeometry x="390" y="95" width="60" height="30" as="geometry" />
        </mxCell>
        <mxCell id="NaCgEEBfmIH6zUX-_HyB-27" value="start" style="text;html=1;strokeColor=none;fillColor=none;align=center;verticalAlign=middle;whiteSpace=wrap;rounded=0;" vertex="1" parent="NaCgEEBfmIH6zUX-_HyB-1">
          <mxGeometry x="390" y="45" width="60" height="30" as="geometry" />
        </mxCell>
        <mxCell id="NaCgEEBfmIH6zUX-_HyB-28" value="item" style="text;html=1;strokeColor=none;fillColor=none;align=center;verticalAlign=middle;whiteSpace=wrap;rounded=0;" vertex="1" parent="NaCgEEBfmIH6zUX-_HyB-1">
          <mxGeometry x="390" y="145" width="60" height="30" as="geometry" />
        </mxCell>
        <mxCell id="NaCgEEBfmIH6zUX-_HyB-29" value="wall" style="text;html=1;strokeColor=none;fillColor=none;align=center;verticalAlign=middle;whiteSpace=wrap;rounded=0;" vertex="1" parent="NaCgEEBfmIH6zUX-_HyB-1">
          <mxGeometry x="390" y="195" width="60" height="30" as="geometry" />
        </mxCell>
        <mxCell id="NaCgEEBfmIH6zUX-_HyB-30" value="" style="endArrow=classic;html=1;rounded=0;fontSize=20;dashed=1;exitX=1;exitY=0.5;exitDx=0;exitDy=0;strokeWidth=2;" edge="1" parent="NaCgEEBfmIH6zUX-_HyB-1" source="NaCgEEBfmIH6zUX-_HyB-8">
          <mxGeometry width="50" height="50" relative="1" as="geometry">
            <mxPoint x="260" y="150" as="sourcePoint" />
            <mxPoint x="120" y="110" as="targetPoint" />
          </mxGeometry>
        </mxCell>
        <mxCell id="NaCgEEBfmIH6zUX-_HyB-31" value="" style="endArrow=classic;html=1;rounded=0;fontSize=20;dashed=1;exitX=0.5;exitY=1;exitDx=0;exitDy=0;entryX=0.5;entryY=0;entryDx=0;entryDy=0;strokeWidth=2;" edge="1" parent="NaCgEEBfmIH6zUX-_HyB-1" source="NaCgEEBfmIH6zUX-_HyB-8" target="NaCgEEBfmIH6zUX-_HyB-12">
          <mxGeometry width="50" height="50" relative="1" as="geometry">
            <mxPoint x="110" y="120" as="sourcePoint" />
            <mxPoint x="130" y="120" as="targetPoint" />
          </mxGeometry>
        </mxCell>
        <mxCell id="NaCgEEBfmIH6zUX-_HyB-32" value="" style="endArrow=classic;html=1;rounded=0;fontSize=20;dashed=1;exitX=0;exitY=0.5;exitDx=0;exitDy=0;strokeWidth=2;" edge="1" parent="NaCgEEBfmIH6zUX-_HyB-1" source="NaCgEEBfmIH6zUX-_HyB-8">
          <mxGeometry width="50" height="50" relative="1" as="geometry">
            <mxPoint x="110" y="120" as="sourcePoint" />
            <mxPoint x="40" y="110" as="targetPoint" />
          </mxGeometry>
        </mxCell>
        <mxCell id="NaCgEEBfmIH6zUX-_HyB-33" style="edgeStyle=orthogonalEdgeStyle;rounded=0;orthogonalLoop=1;jettySize=auto;html=1;exitX=1;exitY=0.5;exitDx=0;exitDy=0;entryX=0;entryY=0.5;entryDx=0;entryDy=0;fontSize=20;fillColor=#dae8fc;strokeColor=#6c8ebf;" edge="1" parent="NaCgEEBfmIH6zUX-_HyB-1" source="NaCgEEBfmIH6zUX-_HyB-10" target="NaCgEEBfmIH6zUX-_HyB-15">
          <mxGeometry relative="1" as="geometry">
            <mxPoint x="170" y="60" as="sourcePoint" />
            <mxPoint x="190" y="60" as="targetPoint" />
          </mxGeometry>
        </mxCell>
        <mxCell id="QAsaH0fX_YlGVs-RHiIR-1" style="edgeStyle=orthogonalEdgeStyle;rounded=0;orthogonalLoop=1;jettySize=auto;html=1;exitX=0.5;exitY=1;exitDx=0;exitDy=0;entryX=0.5;entryY=0;entryDx=0;entryDy=0;fillColor=#dae8fc;strokeColor=#6c8ebf;" edge="1" parent="NaCgEEBfmIH6zUX-_HyB-1" target="QAsaH0fX_YlGVs-RHiIR-2">
          <mxGeometry relative="1" as="geometry">
            <mxPoint x="-100" y="70" as="sourcePoint" />
          </mxGeometry>
        </mxCell>
        <mxCell id="QAsaH0fX_YlGVs-RHiIR-2" value="1" style="rounded=0;whiteSpace=wrap;html=1;fontSize=20;" vertex="1" parent="NaCgEEBfmIH6zUX-_HyB-1">
          <mxGeometry x="-120" y="90" width="40" height="40" as="geometry" />
        </mxCell>
        <mxCell id="QAsaH0fX_YlGVs-RHiIR-3" value="" style="endArrow=classic;html=1;rounded=0;fontSize=20;dashed=1;exitX=1;exitY=0.5;exitDx=0;exitDy=0;strokeWidth=2;" edge="1" parent="NaCgEEBfmIH6zUX-_HyB-1" source="QAsaH0fX_YlGVs-RHiIR-2">
          <mxGeometry width="50" height="50" relative="1" as="geometry">
            <mxPoint x="80" y="150" as="sourcePoint" />
            <mxPoint x="-60" y="110" as="targetPoint" />
          </mxGeometry>
        </mxCell>
        <mxCell id="QAsaH0fX_YlGVs-RHiIR-4" value="" style="endArrow=classic;html=1;rounded=0;fontSize=20;dashed=1;exitX=0.5;exitY=1;exitDx=0;exitDy=0;entryX=0.5;entryY=0;entryDx=0;entryDy=0;strokeWidth=2;" edge="1" parent="NaCgEEBfmIH6zUX-_HyB-1" source="QAsaH0fX_YlGVs-RHiIR-2">
          <mxGeometry width="50" height="50" relative="1" as="geometry">
            <mxPoint x="-70" y="120" as="sourcePoint" />
            <mxPoint x="-100" y="150" as="targetPoint" />
          </mxGeometry>
        </mxCell>
        <mxCell id="QAsaH0fX_YlGVs-RHiIR-5" value="" style="endArrow=classic;html=1;rounded=0;fontSize=20;dashed=1;exitX=0;exitY=0.5;exitDx=0;exitDy=0;strokeWidth=2;" edge="1" parent="NaCgEEBfmIH6zUX-_HyB-1" source="QAsaH0fX_YlGVs-RHiIR-2">
          <mxGeometry width="50" height="50" relative="1" as="geometry">
            <mxPoint x="-70" y="120" as="sourcePoint" />
            <mxPoint x="-140" y="110" as="targetPoint" />
          </mxGeometry>
        </mxCell>
        <mxCell id="QAsaH0fX_YlGVs-RHiIR-6" value="already visited" style="text;html=1;strokeColor=none;fillColor=none;align=center;verticalAlign=middle;whiteSpace=wrap;rounded=0;fontSize=20;" vertex="1" parent="NaCgEEBfmIH6zUX-_HyB-1">
          <mxGeometry x="-60" y="95" width="60" height="30" as="geometry" />
        </mxCell>
        <mxCell id="QAsaH0fX_YlGVs-RHiIR-7" value="wall" style="text;html=1;strokeColor=none;fillColor=none;align=center;verticalAlign=middle;whiteSpace=wrap;rounded=0;fontSize=20;" vertex="1" parent="NaCgEEBfmIH6zUX-_HyB-1">
          <mxGeometry x="-130" y="145" width="60" height="30" as="geometry" />
        </mxCell>
        <mxCell id="QAsaH0fX_YlGVs-RHiIR-8" value="out of boundary" style="text;html=1;strokeColor=none;fillColor=none;align=center;verticalAlign=middle;whiteSpace=wrap;rounded=0;fontSize=20;" vertex="1" parent="NaCgEEBfmIH6zUX-_HyB-1">
          <mxGeometry x="-210" y="85" width="60" height="50" as="geometry" />
        </mxCell>
        <mxCell id="QAsaH0fX_YlGVs-RHiIR-9" value="" style="rounded=1;whiteSpace=wrap;html=1;fontSize=20;fillColor=none;" vertex="1" parent="NaCgEEBfmIH6zUX-_HyB-1">
          <mxGeometry x="-240" y="60" width="260" height="115" as="geometry" />
        </mxCell>
      </root>
    </mxGraphModel>
  </diagram>
  <diagram name="6" id="oAvaf1MlpHLq1wHJl7B5">
    <mxGraphModel dx="728" dy="457" grid="1" gridSize="10" guides="1" tooltips="1" connect="1" arrows="1" fold="1" page="1" pageScale="1" pageWidth="600" pageHeight="300" math="0" shadow="0">
      <root>
        <mxCell id="FJ6034yAjyZsI7u_NWvn-0" />
        <mxCell id="FJ6034yAjyZsI7u_NWvn-1" parent="FJ6034yAjyZsI7u_NWvn-0" />
        <mxCell id="FJ6034yAjyZsI7u_NWvn-2" style="edgeStyle=orthogonalEdgeStyle;rounded=0;orthogonalLoop=1;jettySize=auto;html=1;exitX=1;exitY=0.5;exitDx=0;exitDy=0;entryX=0;entryY=0.5;entryDx=0;entryDy=0;fillColor=#dae8fc;strokeColor=#6c8ebf;" edge="1" parent="FJ6034yAjyZsI7u_NWvn-1" source="FJ6034yAjyZsI7u_NWvn-4" target="FJ6034yAjyZsI7u_NWvn-7">
          <mxGeometry relative="1" as="geometry" />
        </mxCell>
        <mxCell id="FJ6034yAjyZsI7u_NWvn-3" style="edgeStyle=orthogonalEdgeStyle;rounded=0;orthogonalLoop=1;jettySize=auto;html=1;exitX=0.5;exitY=1;exitDx=0;exitDy=0;entryX=0.5;entryY=0;entryDx=0;entryDy=0;fillColor=#dae8fc;strokeColor=#6c8ebf;" edge="1" parent="FJ6034yAjyZsI7u_NWvn-1" source="FJ6034yAjyZsI7u_NWvn-4" target="FJ6034yAjyZsI7u_NWvn-8">
          <mxGeometry relative="1" as="geometry" />
        </mxCell>
        <mxCell id="FJ6034yAjyZsI7u_NWvn-4" value="0" style="rounded=0;whiteSpace=wrap;html=1;fillColor=#fff2cc;strokeColor=#d6b656;fontSize=20;" vertex="1" parent="FJ6034yAjyZsI7u_NWvn-1">
          <mxGeometry x="60" y="30" width="40" height="40" as="geometry" />
        </mxCell>
        <mxCell id="FJ6034yAjyZsI7u_NWvn-5" style="edgeStyle=orthogonalEdgeStyle;rounded=0;orthogonalLoop=1;jettySize=auto;html=1;exitX=1;exitY=0.5;exitDx=0;exitDy=0;entryX=0;entryY=0.5;entryDx=0;entryDy=0;fontSize=20;fillColor=#dae8fc;strokeColor=#6c8ebf;" edge="1" parent="FJ6034yAjyZsI7u_NWvn-1" source="FJ6034yAjyZsI7u_NWvn-7" target="FJ6034yAjyZsI7u_NWvn-10">
          <mxGeometry relative="1" as="geometry" />
        </mxCell>
        <mxCell id="FJ6034yAjyZsI7u_NWvn-6" style="edgeStyle=orthogonalEdgeStyle;rounded=0;orthogonalLoop=1;jettySize=auto;html=1;exitX=0.5;exitY=1;exitDx=0;exitDy=0;entryX=0.5;entryY=0;entryDx=0;entryDy=0;fontSize=20;fillColor=#dae8fc;strokeColor=#6c8ebf;" edge="1" parent="FJ6034yAjyZsI7u_NWvn-1" source="FJ6034yAjyZsI7u_NWvn-7" target="FJ6034yAjyZsI7u_NWvn-9">
          <mxGeometry relative="1" as="geometry" />
        </mxCell>
        <mxCell id="FJ6034yAjyZsI7u_NWvn-7" value="1" style="rounded=0;whiteSpace=wrap;html=1;fontSize=20;" vertex="1" parent="FJ6034yAjyZsI7u_NWvn-1">
          <mxGeometry x="120" y="30" width="40" height="40" as="geometry" />
        </mxCell>
        <mxCell id="FJ6034yAjyZsI7u_NWvn-8" value="1" style="rounded=0;whiteSpace=wrap;html=1;fontSize=20;" vertex="1" parent="FJ6034yAjyZsI7u_NWvn-1">
          <mxGeometry x="60" y="90" width="40" height="40" as="geometry" />
        </mxCell>
        <mxCell id="FJ6034yAjyZsI7u_NWvn-9" value="2" style="rounded=0;whiteSpace=wrap;html=1;fillColor=#d5e8d4;strokeColor=#82b366;fontSize=20;" vertex="1" parent="FJ6034yAjyZsI7u_NWvn-1">
          <mxGeometry x="120" y="90" width="40" height="40" as="geometry" />
        </mxCell>
        <mxCell id="FJ6034yAjyZsI7u_NWvn-10" value="2" style="rounded=0;whiteSpace=wrap;html=1;fontSize=20;" vertex="1" parent="FJ6034yAjyZsI7u_NWvn-1">
          <mxGeometry x="180" y="30" width="40" height="40" as="geometry" />
        </mxCell>
        <mxCell id="FJ6034yAjyZsI7u_NWvn-11" value="" style="rounded=0;whiteSpace=wrap;html=1;fillColor=#f8cecc;strokeColor=#b85450;" vertex="1" parent="FJ6034yAjyZsI7u_NWvn-1">
          <mxGeometry x="180" y="90" width="40" height="40" as="geometry" />
        </mxCell>
        <mxCell id="FJ6034yAjyZsI7u_NWvn-12" value="" style="rounded=0;whiteSpace=wrap;html=1;fillColor=#f8cecc;strokeColor=#b85450;" vertex="1" parent="FJ6034yAjyZsI7u_NWvn-1">
          <mxGeometry x="60" y="150" width="40" height="40" as="geometry" />
        </mxCell>
        <mxCell id="FJ6034yAjyZsI7u_NWvn-13" value="" style="rounded=0;whiteSpace=wrap;html=1;fillColor=#f8cecc;strokeColor=#b85450;" vertex="1" parent="FJ6034yAjyZsI7u_NWvn-1">
          <mxGeometry x="120" y="150" width="40" height="40" as="geometry" />
        </mxCell>
        <mxCell id="FJ6034yAjyZsI7u_NWvn-14" value="" style="rounded=0;whiteSpace=wrap;html=1;fillColor=#f8cecc;strokeColor=#b85450;" vertex="1" parent="FJ6034yAjyZsI7u_NWvn-1">
          <mxGeometry x="180" y="150" width="40" height="40" as="geometry" />
        </mxCell>
        <mxCell id="FJ6034yAjyZsI7u_NWvn-15" value="3" style="rounded=0;whiteSpace=wrap;html=1;fillColor=#d5e8d4;strokeColor=#82b366;fontSize=20;" vertex="1" parent="FJ6034yAjyZsI7u_NWvn-1">
          <mxGeometry x="240" y="30" width="40" height="40" as="geometry" />
        </mxCell>
        <mxCell id="FJ6034yAjyZsI7u_NWvn-16" value="4" style="rounded=0;whiteSpace=wrap;html=1;fillColor=#d5e8d4;strokeColor=#82b366;fontSize=20;" vertex="1" parent="FJ6034yAjyZsI7u_NWvn-1">
          <mxGeometry x="240" y="90" width="40" height="40" as="geometry" />
        </mxCell>
        <mxCell id="FJ6034yAjyZsI7u_NWvn-17" value="5" style="rounded=0;whiteSpace=wrap;html=1;fontSize=20;" vertex="1" parent="FJ6034yAjyZsI7u_NWvn-1">
          <mxGeometry x="240" y="150" width="40" height="40" as="geometry" />
        </mxCell>
        <mxCell id="FJ6034yAjyZsI7u_NWvn-18" value="" style="rounded=0;whiteSpace=wrap;html=1;" vertex="1" parent="FJ6034yAjyZsI7u_NWvn-1">
          <mxGeometry x="60" y="210" width="40" height="40" as="geometry" />
        </mxCell>
        <mxCell id="FJ6034yAjyZsI7u_NWvn-19" value="" style="rounded=0;whiteSpace=wrap;html=1;fillColor=#f8cecc;strokeColor=#b85450;" vertex="1" parent="FJ6034yAjyZsI7u_NWvn-1">
          <mxGeometry x="120" y="210" width="40" height="40" as="geometry" />
        </mxCell>
        <mxCell id="FJ6034yAjyZsI7u_NWvn-20" value="7" style="rounded=0;whiteSpace=wrap;html=1;fillColor=#d5e8d4;strokeColor=#82b366;fontSize=20;" vertex="1" parent="FJ6034yAjyZsI7u_NWvn-1">
          <mxGeometry x="180" y="210" width="40" height="40" as="geometry" />
        </mxCell>
        <mxCell id="FJ6034yAjyZsI7u_NWvn-21" value="6" style="rounded=0;whiteSpace=wrap;html=1;fillColor=#d5e8d4;strokeColor=#82b366;fontSize=20;" vertex="1" parent="FJ6034yAjyZsI7u_NWvn-1">
          <mxGeometry x="240" y="210" width="40" height="40" as="geometry" />
        </mxCell>
        <mxCell id="FJ6034yAjyZsI7u_NWvn-22" value="" style="rounded=0;whiteSpace=wrap;html=1;fillColor=#fff2cc;strokeColor=#d6b656;" vertex="1" parent="FJ6034yAjyZsI7u_NWvn-1">
          <mxGeometry x="360" y="40" width="40" height="40" as="geometry" />
        </mxCell>
        <mxCell id="FJ6034yAjyZsI7u_NWvn-23" value="" style="rounded=0;whiteSpace=wrap;html=1;fillColor=#d5e8d4;strokeColor=#82b366;" vertex="1" parent="FJ6034yAjyZsI7u_NWvn-1">
          <mxGeometry x="360" y="140" width="40" height="40" as="geometry" />
        </mxCell>
        <mxCell id="FJ6034yAjyZsI7u_NWvn-24" value="" style="rounded=0;whiteSpace=wrap;html=1;" vertex="1" parent="FJ6034yAjyZsI7u_NWvn-1">
          <mxGeometry x="360" y="90" width="40" height="40" as="geometry" />
        </mxCell>
        <mxCell id="FJ6034yAjyZsI7u_NWvn-25" value="" style="rounded=0;whiteSpace=wrap;html=1;fillColor=#f8cecc;strokeColor=#b85450;" vertex="1" parent="FJ6034yAjyZsI7u_NWvn-1">
          <mxGeometry x="360" y="190" width="40" height="40" as="geometry" />
        </mxCell>
        <mxCell id="FJ6034yAjyZsI7u_NWvn-26" value="empty" style="text;html=1;strokeColor=none;fillColor=none;align=center;verticalAlign=middle;whiteSpace=wrap;rounded=0;" vertex="1" parent="FJ6034yAjyZsI7u_NWvn-1">
          <mxGeometry x="390" y="95" width="60" height="30" as="geometry" />
        </mxCell>
        <mxCell id="FJ6034yAjyZsI7u_NWvn-27" value="start" style="text;html=1;strokeColor=none;fillColor=none;align=center;verticalAlign=middle;whiteSpace=wrap;rounded=0;" vertex="1" parent="FJ6034yAjyZsI7u_NWvn-1">
          <mxGeometry x="390" y="45" width="60" height="30" as="geometry" />
        </mxCell>
        <mxCell id="FJ6034yAjyZsI7u_NWvn-28" value="item" style="text;html=1;strokeColor=none;fillColor=none;align=center;verticalAlign=middle;whiteSpace=wrap;rounded=0;" vertex="1" parent="FJ6034yAjyZsI7u_NWvn-1">
          <mxGeometry x="390" y="145" width="60" height="30" as="geometry" />
        </mxCell>
        <mxCell id="FJ6034yAjyZsI7u_NWvn-29" value="wall" style="text;html=1;strokeColor=none;fillColor=none;align=center;verticalAlign=middle;whiteSpace=wrap;rounded=0;" vertex="1" parent="FJ6034yAjyZsI7u_NWvn-1">
          <mxGeometry x="390" y="195" width="60" height="30" as="geometry" />
        </mxCell>
        <mxCell id="FJ6034yAjyZsI7u_NWvn-30" value="" style="endArrow=classic;html=1;rounded=0;fontSize=20;dashed=1;exitX=1;exitY=0.5;exitDx=0;exitDy=0;fillColor=#f8cecc;strokeColor=#b85450;strokeWidth=2;" edge="1" parent="FJ6034yAjyZsI7u_NWvn-1" source="FJ6034yAjyZsI7u_NWvn-8">
          <mxGeometry width="50" height="50" relative="1" as="geometry">
            <mxPoint x="260" y="150" as="sourcePoint" />
            <mxPoint x="120" y="110" as="targetPoint" />
          </mxGeometry>
        </mxCell>
        <mxCell id="FJ6034yAjyZsI7u_NWvn-31" value="" style="endArrow=classic;html=1;rounded=0;fontSize=20;dashed=1;exitX=0.5;exitY=1;exitDx=0;exitDy=0;fillColor=#f8cecc;strokeColor=#b85450;entryX=0.5;entryY=0;entryDx=0;entryDy=0;strokeWidth=2;" edge="1" parent="FJ6034yAjyZsI7u_NWvn-1" source="FJ6034yAjyZsI7u_NWvn-8" target="FJ6034yAjyZsI7u_NWvn-12">
          <mxGeometry width="50" height="50" relative="1" as="geometry">
            <mxPoint x="110" y="120" as="sourcePoint" />
            <mxPoint x="130" y="120" as="targetPoint" />
          </mxGeometry>
        </mxCell>
        <mxCell id="FJ6034yAjyZsI7u_NWvn-32" value="" style="endArrow=classic;html=1;rounded=0;fontSize=20;dashed=1;exitX=0;exitY=0.5;exitDx=0;exitDy=0;fillColor=#f8cecc;strokeColor=#b85450;strokeWidth=2;" edge="1" parent="FJ6034yAjyZsI7u_NWvn-1" source="FJ6034yAjyZsI7u_NWvn-8">
          <mxGeometry width="50" height="50" relative="1" as="geometry">
            <mxPoint x="110" y="120" as="sourcePoint" />
            <mxPoint x="40" y="110" as="targetPoint" />
          </mxGeometry>
        </mxCell>
        <mxCell id="FJ6034yAjyZsI7u_NWvn-33" style="edgeStyle=orthogonalEdgeStyle;rounded=0;orthogonalLoop=1;jettySize=auto;html=1;exitX=1;exitY=0.5;exitDx=0;exitDy=0;entryX=0;entryY=0.5;entryDx=0;entryDy=0;fontSize=20;fillColor=#dae8fc;strokeColor=#6c8ebf;" edge="1" parent="FJ6034yAjyZsI7u_NWvn-1" source="FJ6034yAjyZsI7u_NWvn-10" target="FJ6034yAjyZsI7u_NWvn-15">
          <mxGeometry relative="1" as="geometry">
            <mxPoint x="170" y="60" as="sourcePoint" />
            <mxPoint x="190" y="60" as="targetPoint" />
          </mxGeometry>
        </mxCell>
        <mxCell id="FJ6034yAjyZsI7u_NWvn-34" style="edgeStyle=orthogonalEdgeStyle;rounded=0;orthogonalLoop=1;jettySize=auto;html=1;exitX=0.5;exitY=1;exitDx=0;exitDy=0;entryX=0.5;entryY=0;entryDx=0;entryDy=0;fontSize=20;fillColor=#dae8fc;strokeColor=#6c8ebf;" edge="1" parent="FJ6034yAjyZsI7u_NWvn-1" source="FJ6034yAjyZsI7u_NWvn-15" target="FJ6034yAjyZsI7u_NWvn-16">
          <mxGeometry relative="1" as="geometry">
            <mxPoint x="230" y="60" as="sourcePoint" />
            <mxPoint x="250" y="60" as="targetPoint" />
          </mxGeometry>
        </mxCell>
        <mxCell id="FJ6034yAjyZsI7u_NWvn-35" style="edgeStyle=orthogonalEdgeStyle;rounded=0;orthogonalLoop=1;jettySize=auto;html=1;exitX=0.5;exitY=1;exitDx=0;exitDy=0;entryX=0.5;entryY=0;entryDx=0;entryDy=0;fontSize=20;fillColor=#dae8fc;strokeColor=#6c8ebf;" edge="1" parent="FJ6034yAjyZsI7u_NWvn-1" source="FJ6034yAjyZsI7u_NWvn-16" target="FJ6034yAjyZsI7u_NWvn-17">
          <mxGeometry relative="1" as="geometry">
            <mxPoint x="270" y="80" as="sourcePoint" />
            <mxPoint x="270" y="100" as="targetPoint" />
          </mxGeometry>
        </mxCell>
        <mxCell id="FJ6034yAjyZsI7u_NWvn-37" style="edgeStyle=orthogonalEdgeStyle;rounded=0;orthogonalLoop=1;jettySize=auto;html=1;exitX=0.5;exitY=1;exitDx=0;exitDy=0;fontSize=20;fillColor=#dae8fc;strokeColor=#6c8ebf;" edge="1" parent="FJ6034yAjyZsI7u_NWvn-1" source="FJ6034yAjyZsI7u_NWvn-17">
          <mxGeometry relative="1" as="geometry">
            <mxPoint x="310" y="160" as="sourcePoint" />
            <mxPoint x="260" y="210" as="targetPoint" />
          </mxGeometry>
        </mxCell>
        <mxCell id="FJ6034yAjyZsI7u_NWvn-39" style="edgeStyle=orthogonalEdgeStyle;rounded=0;orthogonalLoop=1;jettySize=auto;html=1;exitX=0;exitY=0.545;exitDx=0;exitDy=0;fontSize=20;fillColor=#dae8fc;strokeColor=#6c8ebf;exitPerimeter=0;entryX=0.995;entryY=0.554;entryDx=0;entryDy=0;entryPerimeter=0;" edge="1" parent="FJ6034yAjyZsI7u_NWvn-1" source="FJ6034yAjyZsI7u_NWvn-21" target="FJ6034yAjyZsI7u_NWvn-20">
          <mxGeometry relative="1" as="geometry">
            <mxPoint x="269.99999999999994" y="200" as="sourcePoint" />
            <mxPoint x="269.99999999999994" y="220" as="targetPoint" />
          </mxGeometry>
        </mxCell>
      </root>
    </mxGraphModel>
  </diagram>
</mxfile>
